<svg xmlns="http://www.w3.org/2000/svg" width="512" height="512" viewBox="0 0 512 512">
  <defs>
    <radialGradient id="g" cx="30%" cy="25%" r="80%">
      <stop offset="0%" stop-color="#1e232e"/>
      <stop offset="55%" stop-color="#0f1218"/>
      <stop offset="100%" stop-color="#080a0e"/>
    </radialGradient>
    <linearGradient id="a" x1="0" y1="0" x2="1" y2="1">
      <stop offset="0%" stop-color="#c07830"/>
      <stop offset="100%" stop-color="#e89840"/>
    </linearGradient>
  </defs>
  <rect width="512" height="512" rx="112" fill="url(#g)"/>
  <circle cx="256" cy="256" r="140" fill="none" stroke="url(#a)" stroke-width="18"/>
  <circle cx="256" cy="256" r="86" fill="none" stroke="#40b0a8" stroke-width="10" opacity="0.9"/>
  <circle cx="256" cy="256" r="14" fill="#e89840"/>
  <path d="M256 154c-56 0-102 46-102 102s46 102 102 102 102-46 102-102-46-102-102-102zm0 22c44 0 80 36 80 80s-36 80-80 80-80-36-80-80 36-80 80-80z" fill="#e8e4e0" opacity="0.08"/>
  <text x="256" y="420" text-anchor="middle" font-size="54" font-family="system-ui, -apple-system, sans-serif" fill="#e89840" font-weight="700">BETT</text>
</svg>

